<svg id="pinte_sorriso" xmlns="http://www.w3.org/2000/svg" xmlns:xlink="http://www.w3.org/1999/xlink" width="57.692" height="57.693" viewBox="0 0 57.692 57.693">
  <defs>
    <clipPath id="clip-path">
      <rect id="Retângulo_449" data-name="Retângulo 449" width="57.692" height="57.693" transform="translate(0 0)" fill="none"/>
    </clipPath>
  </defs>
  <g id="Grupo_3633" data-name="Grupo 3633" clip-path="url(#clip-path)">
    <path id="Caminho_4899" data-name="Caminho 4899" d="M28.846,57.193A28.347,28.347,0,1,0,.5,28.845,28.347,28.347,0,0,0,28.846,57.193Z" fill="none" stroke="#1a1818" stroke-width="1"/>
    <path id="Caminho_4900" data-name="Caminho 4900" d="M20.338,22.484c1.007,0,1.823-1.745,1.823-3.9s-.816-3.893-1.823-3.893-1.823,1.743-1.823,3.893.816,3.9,1.823,3.9" fill="#1a1818"/>
    <path id="Caminho_4901" data-name="Caminho 4901" d="M36.417,22.484c1.007,0,1.822-1.745,1.822-3.9s-.815-3.893-1.822-3.893-1.824,1.743-1.824,3.893.817,3.9,1.824,3.9" fill="#1a1818"/>
    <path id="Caminho_4902" data-name="Caminho 4902" d="M49.55,29.156a21.173,21.173,0,1,1-42.346,0Z" fill="none" stroke="#1a1818" stroke-linecap="round" stroke-linejoin="round" stroke-width="1"/>
  </g>
</svg>
