<svg xmlns="http://www.w3.org/2000/svg" xmlns:xlink="http://www.w3.org/1999/xlink" width="51" height="51" viewBox="0 0 51 51">
  <defs>
    <clipPath id="clip-path">
      <rect id="Retângulo_447" data-name="Retângulo 447" width="51" height="51" fill="none"/>
    </clipPath>
  </defs>
  <g id="pinte_triste" transform="translate(0 0)">
    <g id="Grupo_3631" data-name="Grupo 3631" transform="translate(0 0)" clip-path="url(#clip-path)">
      <path id="Caminho_4892" data-name="Caminho 4892" d="M49.339,25.17A24.17,24.17,0,1,1,25.17,1a24.17,24.17,0,0,1,24.17,24.17" transform="translate(0.33 0.331)" fill="#fff"/>
      <circle id="Elipse_20" data-name="Elipse 20" cx="24.17" cy="24.17" r="24.17" transform="translate(1.33 1.331)" fill="none" stroke="#1a1818" stroke-width="2"/>
      <path id="Caminho_4893" data-name="Caminho 4893" d="M10.6,28.67A15.031,15.031,0,0,1,22,23.082,15.563,15.563,0,0,1,33.4,27.75" transform="translate(3.501 7.627)" fill="none" stroke="#1a1818" stroke-linecap="round" stroke-linejoin="round" stroke-width="2"/>
      <path id="Caminho_4894" data-name="Caminho 4894" d="M17.016,14.818a2.9,2.9,0,1,1-5.8,0" transform="translate(3.705 4.896)" fill="none" stroke="#1a1818" stroke-linecap="round" stroke-linejoin="round" stroke-width="2"/>
      <path id="Caminho_4895" data-name="Caminho 4895" d="M17.016,14.818a2.9,2.9,0,1,1-5.8,0" transform="translate(3.705 4.896)" fill="none" stroke="#1a1818" stroke-linecap="round" stroke-linejoin="round" stroke-width="2"/>
      <path id="Caminho_4896" data-name="Caminho 4896" d="M28.562,14.818a2.9,2.9,0,1,1-5.8,0" transform="translate(7.52 4.896)" fill="none" stroke="#1a1818" stroke-linecap="round" stroke-linejoin="round" stroke-width="2"/>
      <path id="Caminho_4897" data-name="Caminho 4897" d="M28.562,14.818a2.9,2.9,0,1,1-5.8,0" transform="translate(7.52 4.896)" fill="none" stroke="#1a1818" stroke-linecap="round" stroke-linejoin="round" stroke-width="2"/>
    </g>
  </g>
</svg>
