<svg xmlns="http://www.w3.org/2000/svg" xmlns:xlink="http://www.w3.org/1999/xlink" width="51" height="51" viewBox="0 0 51 51">
  <defs>
    <clipPath id="clip-path">
      <rect id="Retângulo_446" data-name="Retângulo 446" width="51" height="51" fill="none"/>
    </clipPath>
  </defs>
  <g id="pinte_nervoso" transform="translate(0 0)">
    <g id="Grupo_3629" data-name="Grupo 3629" transform="translate(0 0)" clip-path="url(#clip-path)">
      <path id="Caminho_4881" data-name="Caminho 4881" d="M49.339,25.17A24.17,24.17,0,1,1,25.17,1a24.17,24.17,0,0,1,24.17,24.17" transform="translate(0.33 0.331)" fill="#fff"/>
      <circle id="Elipse_19" data-name="Elipse 19" cx="24.17" cy="24.17" r="24.17" transform="translate(1.33 1.331)" fill="none" stroke="#1a1818" stroke-width="2"/>
      <path id="Caminho_4882" data-name="Caminho 4882" d="M28.783,15.426A3.079,3.079,0,1,1,25.7,12.347a3.079,3.079,0,0,1,3.079,3.079" transform="translate(7.476 4.08)" fill="#1a1818"/>
      <path id="Caminho_4883" data-name="Caminho 4883" d="M27.033,14.895a.94.94,0,1,1-.941-.941.941.941,0,0,1,.941.941" transform="translate(8.311 4.611)" fill="#fff"/>
      <path id="Caminho_4884" data-name="Caminho 4884" d="M17.237,15.426a3.079,3.079,0,1,1-3.079-3.079,3.079,3.079,0,0,1,3.079,3.079" transform="translate(3.661 4.08)" fill="#1a1818"/>
      <path id="Caminho_4885" data-name="Caminho 4885" d="M15.487,14.895a.94.94,0,1,1-.941-.941.941.941,0,0,1,.941.941" transform="translate(4.496 4.611)" fill="#fff"/>
      <path id="Caminho_4886" data-name="Caminho 4886" d="M28.783,15.426A3.079,3.079,0,1,1,25.7,12.347a3.079,3.079,0,0,1,3.079,3.079" transform="translate(7.476 4.08)" fill="#1a1818"/>
      <path id="Caminho_4887" data-name="Caminho 4887" d="M27.033,14.895a.94.94,0,1,1-.941-.941.941.941,0,0,1,.941.941" transform="translate(8.311 4.611)" fill="#fff"/>
      <path id="Caminho_4888" data-name="Caminho 4888" d="M17.237,15.426a3.079,3.079,0,1,1-3.079-3.079,3.079,3.079,0,0,1,3.079,3.079" transform="translate(3.661 4.08)" fill="#1a1818"/>
      <path id="Caminho_4889" data-name="Caminho 4889" d="M15.487,14.895a.94.94,0,1,1-.941-.941.941.941,0,0,1,.941.941" transform="translate(4.496 4.611)" fill="#fff"/>
      <path id="Caminho_4890" data-name="Caminho 4890" d="M11.08,26.67a15.031,15.031,0,0,1,11.4-5.588,15.563,15.563,0,0,1,11.4,4.668" transform="translate(3.661 6.966)" fill="none" stroke="#1a1818" stroke-linecap="round" stroke-linejoin="round" stroke-width="2"/>
      <path id="Caminho_4891" data-name="Caminho 4891" d="M11.08,26.67a15.031,15.031,0,0,1,11.4-5.588,15.563,15.563,0,0,1,11.4,4.668" transform="translate(3.661 6.966)" fill="none" stroke="#1a1818" stroke-linecap="round" stroke-linejoin="round" stroke-width="2"/>
      <line id="Linha_7" data-name="Linha 7" x1="4.877" y2="1.851" transform="translate(30.741 15.501)" fill="none" stroke="#1a1818" stroke-linecap="round" stroke-linejoin="round" stroke-width="2"/>
      <line id="Linha_8" data-name="Linha 8" x1="4.877" y2="1.851" transform="translate(30.741 15.501)" fill="none" stroke="#1a1818" stroke-linecap="round" stroke-linejoin="round" stroke-width="2"/>
      <line id="Linha_9" data-name="Linha 9" x2="4.877" y2="1.851" transform="translate(15.665 15.501)" fill="none" stroke="#1a1818" stroke-linecap="round" stroke-linejoin="round" stroke-width="2"/>
      <line id="Linha_10" data-name="Linha 10" x2="4.877" y2="1.851" transform="translate(15.665 15.501)" fill="none" stroke="#1a1818" stroke-linecap="round" stroke-linejoin="round" stroke-width="2"/>
    </g>
  </g>
</svg>
