<svg xmlns="http://www.w3.org/2000/svg" xmlns:xlink="http://www.w3.org/1999/xlink" width="51" height="51" viewBox="0 0 51 51">
  <defs>
    <clipPath id="clip-path">
      <rect id="Retângulo_445" data-name="Retângulo 445" width="51" height="51" fill="none"/>
    </clipPath>
  </defs>
  <g id="pinte_alegre" transform="translate(0 0)">
    <g id="Grupo_3627" data-name="Grupo 3627" transform="translate(0 0)" clip-path="url(#clip-path)">
      <path id="Caminho_4870" data-name="Caminho 4870" d="M49.339,25.17A24.17,24.17,0,1,1,25.17,1a24.17,24.17,0,0,1,24.17,24.17" transform="translate(0.33 0.331)" fill="#fff"/>
      <circle id="Elipse_18" data-name="Elipse 18" cx="24.17" cy="24.17" r="24.17" transform="translate(1.33 1.331)" fill="none" stroke="#1a1818" stroke-width="2"/>
      <path id="Caminho_4871" data-name="Caminho 4871" d="M35.13,20.889c-.065.757,1.192,9.873-11.235,11.962-6.426,1.079-12.8-2.584-14.344-9.071Z" transform="translate(3.155 6.902)" fill="none" stroke="#1a1818" stroke-linecap="round" stroke-linejoin="round" stroke-width="2"/>
      <path id="Caminho_4872" data-name="Caminho 4872" d="M35.13,20.889c-.065.757,1.192,9.873-11.235,11.962-6.426,1.079-12.8-2.584-14.344-9.071Z" transform="translate(3.155 6.902)" fill="none" stroke="#1a1818" stroke-linecap="round" stroke-linejoin="round" stroke-width="2"/>
      <path id="Caminho_4873" data-name="Caminho 4873" d="M28.783,15.426A3.079,3.079,0,1,1,25.7,12.347a3.079,3.079,0,0,1,3.079,3.079" transform="translate(7.476 4.08)" fill="#1a1818"/>
      <path id="Caminho_4874" data-name="Caminho 4874" d="M27.033,14.895a.94.94,0,1,1-.941-.941.941.941,0,0,1,.941.941" transform="translate(8.311 4.611)" fill="#fff"/>
      <path id="Caminho_4875" data-name="Caminho 4875" d="M17.237,15.426a3.079,3.079,0,1,1-3.079-3.079,3.079,3.079,0,0,1,3.079,3.079" transform="translate(3.661 4.08)" fill="#1a1818"/>
      <path id="Caminho_4876" data-name="Caminho 4876" d="M15.487,14.895a.94.94,0,1,1-.941-.941.941.941,0,0,1,.941.941" transform="translate(4.496 4.611)" fill="#fff"/>
      <path id="Caminho_4877" data-name="Caminho 4877" d="M28.783,15.426A3.079,3.079,0,1,1,25.7,12.347a3.079,3.079,0,0,1,3.079,3.079" transform="translate(7.476 4.08)" fill="#1a1818"/>
      <path id="Caminho_4878" data-name="Caminho 4878" d="M27.033,14.895a.94.94,0,1,1-.941-.941.941.941,0,0,1,.941.941" transform="translate(8.311 4.611)" fill="#fff"/>
      <path id="Caminho_4879" data-name="Caminho 4879" d="M17.237,15.426a3.079,3.079,0,1,1-3.079-3.079,3.079,3.079,0,0,1,3.079,3.079" transform="translate(3.661 4.08)" fill="#1a1818"/>
      <path id="Caminho_4880" data-name="Caminho 4880" d="M15.487,14.895a.94.94,0,1,1-.941-.941.941.941,0,0,1,.941.941" transform="translate(4.496 4.611)" fill="#fff"/>
    </g>
  </g>
</svg>
