<svg xmlns="http://www.w3.org/2000/svg" width="61.968" height="30.984" viewBox="0 0 61.968 30.984">
  <g id="pv_material_comp_um" transform="translate(-45.07 -1653.321)">
    <path id="Caminho_3563" data-name="Caminho 3563" d="M0,0A15.492,15.492,0,0,0-15.492-15.492a15.4,15.4,0,0,0-6.943,1.657l-.028-.039c-.127.083-.253.156-.379.235-.23.124-.447.268-.67.4a14.34,14.34,0,0,1-14.2.465,15.557,15.557,0,0,0-1.385-.855l-.047-.035-.007.009a15.422,15.422,0,0,0-7.323-1.84A15.492,15.492,0,0,0-61.968,0,15.492,15.492,0,0,0-46.476,15.492a15.409,15.409,0,0,0,8.941-2.854,14.235,14.235,0,0,1,13.352.186,15.428,15.428,0,0,0,1.647.962l.073.045,0-.007a15.411,15.411,0,0,0,6.966,1.668A15.492,15.492,0,0,0,0,0" transform="translate(107.038 1668.813)" fill="#0fbed2"/>
    <path id="Caminho_3564" data-name="Caminho 3564" d="M0,0A9.46,9.46,0,0,0,9.46-9.46,9.46,9.46,0,0,0,0-18.919,9.46,9.46,0,0,0-9.46-9.46,9.46,9.46,0,0,0,0,0" transform="translate(60.127 1678.272)" fill="#fff"/>
    <path id="Caminho_3565" data-name="Caminho 3565" d="M0,0A9.46,9.46,0,0,0,9.46-9.46,9.46,9.46,0,0,0,0-18.919,9.46,9.46,0,0,0-9.46-9.46,9.46,9.46,0,0,0,0,0Z" transform="translate(60.127 1678.272)" fill="none" stroke="#ffcb6a" stroke-width="2.7"/>
  </g>
</svg>
