<svg xmlns="http://www.w3.org/2000/svg" xmlns:xlink="http://www.w3.org/1999/xlink" width="53.784" height="33" viewBox="0 0 53.784 33">
  <defs>
    <clipPath id="clip-path">
      <circle id="Elipse_3" data-name="Elipse 3" cx="16.5" cy="16.5" r="16.5" transform="translate(350 1373)" fill="none"/>
    </clipPath>
  </defs>
  <g id="pv_sec3_dois" transform="translate(-350 -1373)">
    <path id="Caminho_3458" data-name="Caminho 3458" d="M0,0A11.131,11.131,0,0,0-11.167-11.1a11.161,11.161,0,0,0-5.005,1.187l-.02-.028c-.092.059-.183.112-.274.168-.165.089-.322.192-.482.288a10.4,10.4,0,0,1-10.238.333,11.534,11.534,0,0,0-1-.612l-.034-.025,0,.007A11.168,11.168,0,0,0-33.5-11.1,11.131,11.131,0,0,0-44.669,0,11.131,11.131,0,0,0-33.5,11.1a11.154,11.154,0,0,0,6.445-2.044,10.323,10.323,0,0,1,9.625.134,11.355,11.355,0,0,0,1.187.689l.053.032,0-.005A11.159,11.159,0,0,0-11.167,11.1,11.131,11.131,0,0,0,0,0" transform="translate(403.784 1389.601)" fill="#ff9147"/>
    <path id="Caminho_3460" data-name="Caminho 3460" d="M0,0A4.975,4.975,0,0,0,4.975-4.975,4.975,4.975,0,0,0,0-9.949,4.975,4.975,0,0,0-4.975-4.975,4.975,4.975,0,0,0,0,0" transform="translate(392.865 1394.576)" fill="#ff5639"/>
    <path id="Caminho_3461" data-name="Caminho 3461" d="M0,0A4.975,4.975,0,0,0,4.975-4.975,4.975,4.975,0,0,0,0-9.949,4.975,4.975,0,0,0-4.975-4.975,4.975,4.975,0,0,0,0,0Z" transform="translate(392.865 1394.576)" fill="none" stroke="#ffcb6a" stroke-width="3"/>
    <g id="Grupo_de_máscara_9" data-name="Grupo de máscara 9" clip-path="url(#clip-path)">
      <path id="Caminho_3459" data-name="Caminho 3459" d="M0,0A16.382,16.382,0,0,0,16.382,16.382a16.279,16.279,0,0,0,7.341-1.753l.03.042c.134-.089.267-.166.4-.249.243-.132.472-.283.708-.426a15.162,15.162,0,0,1,15.018-.491,16.338,16.338,0,0,0,1.464.9l.05.038.007-.011a16.3,16.3,0,0,0,7.744,1.947A16.382,16.382,0,0,0,65.526,0,16.382,16.382,0,0,0,49.145-16.382a16.283,16.283,0,0,0-9.454,3.019,15.057,15.057,0,0,1-14.119-.2,16.5,16.5,0,0,0-1.742-1.017l-.077-.048-.006.008a16.288,16.288,0,0,0-7.365-1.764A16.382,16.382,0,0,0,0,0" transform="translate(316.921 1389.602)" fill="#ffcb6a"/>
    </g>
    <path id="Caminho_3462" data-name="Caminho 3462" d="M0,0A7.713,7.713,0,0,0,7.713-7.713,7.712,7.712,0,0,0,0-15.425,7.712,7.712,0,0,0-7.713-7.713,7.713,7.713,0,0,0,0,0" transform="translate(366.666 1397.314)" fill="#fff"/>
    <path id="Caminho_3463" data-name="Caminho 3463" d="M0,0A7.713,7.713,0,0,0,7.713-7.713,7.712,7.712,0,0,0,0-15.425,7.712,7.712,0,0,0-7.713-7.713,7.713,7.713,0,0,0,0,0Z" transform="translate(366.666 1397.314)" fill="none" stroke="#ff9147" stroke-width="4"/>
  </g>
</svg>
