<svg xmlns="http://www.w3.org/2000/svg" xmlns:xlink="http://www.w3.org/1999/xlink" width="47.243" height="47.732" viewBox="0 0 47.243 47.732">
  <defs>
    <clipPath id="clip-path">
      <circle id="Elipse_6" data-name="Elipse 6" cx="17.5" cy="17.5" r="17.5" transform="translate(176 279)" fill="none"/>
    </clipPath>
  </defs>
  <g id="pv_sec1_dois" transform="translate(-170 -272.773)">
    <path id="Caminho_3396" data-name="Caminho 3396" d="M0,0A20.289,20.289,0,0,1-20.165,20.41,20.289,20.289,0,0,1-40.331,0,20.289,20.289,0,0,1-20.165-20.41,20.289,20.289,0,0,1,0,0" transform="translate(213.787 296.639)" fill="#ffcb6a"/>
    <path id="Caminho_3397" data-name="Caminho 3397" d="M0,0A20.289,20.289,0,0,1-20.165,20.41,20.289,20.289,0,0,1-40.331,0,20.289,20.289,0,0,1-20.165-20.41,20.289,20.289,0,0,1,0,0Z" transform="translate(213.787 296.639)" fill="none" stroke="#ffcb6a" stroke-width="6.912"/>
    <g id="Grupo_de_máscara_12" data-name="Grupo de máscara 12" clip-path="url(#clip-path)">
      <g id="Grupo_2232" data-name="Grupo 2232" transform="translate(133 50)">
        <g id="Grupo_2231" data-name="Grupo 2231" transform="translate(113.025 246.176)">
          <path id="Caminho_3412" data-name="Caminho 3412" d="M0,0A17.413,17.413,0,0,0-17.413-17.413a17.312,17.312,0,0,0-7.8,1.863l-.031-.044c-.143.094-.284.176-.426.265-.259.139-.5.3-.753.452a16.115,16.115,0,0,1-15.963.522,17.3,17.3,0,0,0-1.557-.96l-.052-.04-.008.011a17.327,17.327,0,0,0-8.231-2.069A17.413,17.413,0,0,0-69.651,0,17.413,17.413,0,0,0-52.238,17.413,17.309,17.309,0,0,0-42.189,14.2a16.005,16.005,0,0,1,15.008.21A17.493,17.493,0,0,0-25.329,15.5c.027.017.054.032.081.05l.006-.008a17.322,17.322,0,0,0,7.829,1.875A17.413,17.413,0,0,0,0,0" fill="#0fbed2"/>
        </g>
      </g>
    </g>
    <path id="Caminho_3392" data-name="Caminho 3392" d="M-24.639-.2" transform="translate(214.636 303.213)" fill="none" stroke="#ff9073" stroke-width="4"/>
    <path id="Caminho_3399" data-name="Caminho 3399" d="M0,0A3.2,3.2,0,0,0,2.494-3.768,3.2,3.2,0,0,0-1.274-6.261,3.2,3.2,0,0,0-3.768-2.494,3.2,3.2,0,0,0,0,0" transform="translate(191.601 290.23)" fill="#fff"/>
    <path id="Caminho_3400" data-name="Caminho 3400" d="M0,0A3.2,3.2,0,0,0,2.494-3.768,3.2,3.2,0,0,0-1.274-6.261,3.2,3.2,0,0,0-3.768-2.494,3.2,3.2,0,0,0,0,0Z" transform="translate(191.601 290.23)" fill="none" stroke="#fff" stroke-width="2"/>
    <path id="Caminho_3401" data-name="Caminho 3401" d="M0,0A2.835,2.835,0,0,0-2.213,3.343L.6,17.141a2.834,2.834,0,0,0,3.342,2.212l10.3-2.1a2.835,2.835,0,0,0,2.213-3.343L13.641.118A2.835,2.835,0,0,0,10.3-2.1Z" transform="translate(185.93 288.382)" fill="#fff"/>
    <path id="Caminho_3402" data-name="Caminho 3402" d="M0,0A2.835,2.835,0,0,0-2.213,3.343L.6,17.141a2.834,2.834,0,0,0,3.342,2.212l10.3-2.1a2.835,2.835,0,0,0,2.213-3.343L13.641.118A2.835,2.835,0,0,0,10.3-2.1Z" transform="translate(185.93 288.382)" fill="none" stroke="#fff" stroke-width="3"/>
    <path id="Caminho_3403" data-name="Caminho 3403" d="M0,0A3.2,3.2,0,0,0,2.494-3.768,3.2,3.2,0,0,0-1.274-6.261,3.2,3.2,0,0,0-3.768-2.494,3.2,3.2,0,0,0,0,0" transform="translate(191.69 290.356)" fill="#b43fa0"/>
    <path id="Caminho_3404" data-name="Caminho 3404" d="M0,0A2.835,2.835,0,0,0-2.213,3.343L.4,16.184A2.835,2.835,0,0,0,3.743,18.4L13.054,16.5a2.835,2.835,0,0,0,2.213-3.343L12.654.318A2.835,2.835,0,0,0,9.311-1.895Z" transform="translate(186.509 288.72)" fill="#fff"/>
    <path id="Caminho_3405" data-name="Caminho 3405" d="M0,0A2.835,2.835,0,0,0-2.213,3.343L.4,16.184A2.835,2.835,0,0,0,3.743,18.4L13.054,16.5a2.835,2.835,0,0,0,2.213-3.343L12.654.318A2.835,2.835,0,0,0,9.311-1.895Z" transform="translate(186.509 288.72)" fill="none" stroke="#b43fa0" stroke-width="2"/>
    <path id="Caminho_3406" data-name="Caminho 3406" d="M0,0-7.574-6.582-4.95-9.6-.565-5.791,7.774-16.524l3.158,2.454Z" transform="translate(193.652 302.554)" fill="#ff9147"/>
  </g>
</svg>
