<svg xmlns="http://www.w3.org/2000/svg" xmlns:xlink="http://www.w3.org/1999/xlink" width="51.714" height="35" viewBox="0 0 51.714 35">
  <defs>
    <clipPath id="clip-path">
      <circle id="Elipse_1" data-name="Elipse 1" cx="17.5" cy="17.5" r="17.5" transform="translate(1239.571 345)" fill="none"/>
    </clipPath>
  </defs>
  <g id="pv_sec2_dois" transform="translate(-1241 -345)">
    <path id="Caminho_3421" data-name="Caminho 3421" d="M0,0A10.543,10.543,0,0,0-10.543-10.543a10.49,10.49,0,0,0-4.726,1.127l-.019-.026c-.086.057-.172.106-.258.16-.156.084-.3.182-.455.274a9.759,9.759,0,0,1-9.666.316,10.325,10.325,0,0,0-.943-.581l-.032-.024,0,.006a10.5,10.5,0,0,0-4.984-1.252A10.544,10.544,0,0,0-42.174,0,10.544,10.544,0,0,0-31.63,10.543,10.49,10.49,0,0,0-25.545,8.6a9.687,9.687,0,0,1,9.087.127,10.418,10.418,0,0,0,1.121.655c.017.01.033.019.049.03l0-.005a10.484,10.484,0,0,0,4.741,1.135A10.543,10.543,0,0,0,0,0" transform="translate(1292.714 361.013)" fill="#0fbed2"/>
    <g id="Grupo_de_máscara_6" data-name="Grupo de máscara 6" transform="translate(1.429)" clip-path="url(#clip-path)">
      <path id="Caminho_3422" data-name="Caminho 3422" d="M-2.719-.219A17.4,17.4,0,0,0-25.7-9.642a18.327,18.327,0,0,0-6.73,4.793l-.046-.028c-.1.143-.2.275-.308.414-.193.231-.366.477-.548.716A16.923,16.923,0,0,1-48.314,2.991a17.4,17.4,0,0,0-1.835-.286l-.064-.017,0,.013A17.994,17.994,0,0,0-58.8,4,17.979,17.979,0,0,0-68.919,27.054a17.4,17.4,0,0,0,22.985,9.423,18.3,18.3,0,0,0,8.366-6.927A16.816,16.816,0,0,1-23.227,23.87a17.815,17.815,0,0,0,2.16.283c.033.006.063.009.1.016l0-.011a18,18,0,0,0,8.134-1.316A17.981,17.981,0,0,0-2.719-.219" transform="translate(1276.122 356.288)" fill="#ff9147"/>
    </g>
    <path id="Caminho_3431" data-name="Caminho 3431" d="M0,0A7.684,7.684,0,0,0,7.827-7.533,7.684,7.684,0,0,0,0-15.067,7.684,7.684,0,0,0-7.827-7.533,7.684,7.684,0,0,0,0,0" transform="translate(1258.941 369.731)" fill="#fff"/>
    <path id="Caminho_3432" data-name="Caminho 3432" d="M0,0A7.684,7.684,0,0,0,7.827-7.533,7.684,7.684,0,0,0,0-15.067,7.684,7.684,0,0,0-7.827-7.533,7.684,7.684,0,0,0,0,0Z" transform="translate(1258.941 369.731)" fill="none" stroke="#0fbed2" stroke-width="3.65"/>
  </g>
</svg>
