<svg xmlns="http://www.w3.org/2000/svg" xmlns:xlink="http://www.w3.org/1999/xlink" width="87.584" height="59.223" viewBox="0 0 87.584 59.223">
  <defs>
    <clipPath id="clip-path">
      <path id="Caminho_3416" data-name="Caminho 3416" d="M0,0A22.472,22.472,0,0,0-28.443-14.181,22.333,22.333,0,0,0-37.232-8.7l-.056-.042c-.137.174-.276.332-.414.5-.259.276-.492.573-.736.862C-45.548.561-53.793.444-57.762-.21a22.632,22.632,0,0,0-2.3-.538l-.08-.027-.005.017A22.365,22.365,0,0,0-71.068.081,22.473,22.473,0,0,0-85.249,28.524,22.472,22.472,0,0,0-56.806,42.705,22.342,22.342,0,0,0-45.82,34.663a20.65,20.65,0,0,1,18.455-5.889,22.45,22.45,0,0,0,2.709.565c.041.011.08.018.121.029l0-.013a22.346,22.346,0,0,0,10.351-.912A22.473,22.473,0,0,0,0,0" transform="translate(124.285 224.102)" fill="#ff5639"/>
    </clipPath>
  </defs>
  <g id="pv_sec1_um" transform="translate(-130.868 -208.752)">
    <g id="Grupo_2226" data-name="Grupo 2226" transform="translate(217.285 224.102)">
      <path id="Caminho_3390" data-name="Caminho 3390" d="M0,0A22.472,22.472,0,0,0-28.443-14.181,22.333,22.333,0,0,0-37.232-8.7l-.056-.042c-.137.174-.276.332-.414.5-.259.276-.492.573-.736.862C-45.548.561-53.793.444-57.762-.21a22.632,22.632,0,0,0-2.3-.538l-.08-.027-.005.017A22.365,22.365,0,0,0-71.068.081,22.473,22.473,0,0,0-85.249,28.524,22.472,22.472,0,0,0-56.806,42.705,22.342,22.342,0,0,0-45.82,34.663a20.65,20.65,0,0,1,18.455-5.889,22.45,22.45,0,0,0,2.709.565c.041.011.08.018.121.029l0-.013a22.346,22.346,0,0,0,10.351-.912A22.473,22.473,0,0,0,0,0" fill="#ff5639"/>
    </g>
    <path id="Caminho_3411" data-name="Caminho 3411" d="M65.975-61.753a22.424,22.424,0,0,0-7.132,1.169h0a22.357,22.357,0,0,0-8.79,5.475h0L50-55.149c-.137.172-.277.331-.414.5h0c-.259.278-.493.575-.736.863h0c-7.11,7.947-15.355,7.831-19.324,7.176h0a22.382,22.382,0,0,0-2.3-.537h0l-.079-.027h0l-.006.015a22.378,22.378,0,0,0-10.922.84h0A22.472,22.472,0,0,0,2.037-17.878h0A22.473,22.473,0,0,0,30.479-3.7h0A22.365,22.365,0,0,0,41.466-11.74h0a20.653,20.653,0,0,1,18.453-5.889h0a23.218,23.218,0,0,0,2.709.566h0c.043.01.08.017.123.028h0l0-.014A22.324,22.324,0,0,0,73.1-17.96h0A22.475,22.475,0,0,0,87.286-46.4h0A22.49,22.49,0,0,0,65.975-61.753Z" transform="translate(130 270.505)" fill="none"/>
    <g id="Grupo_de_máscara_4" data-name="Grupo de máscara 4" transform="translate(93)" clip-path="url(#clip-path)">
      <path id="Caminho_3414" data-name="Caminho 3414" d="M0,0A14.116,14.116,0,0,1-11.975-6.387,13.2,13.2,0,0,1-13.7-16.59,14.14,14.14,0,0,1-7.105-25.5l2.06,3.428a10.181,10.181,0,0,0-4.759,6.4A9.231,9.231,0,0,0-8.6-8.539C-5.672-3.945.708-2.609,5.619-5.559L7.68-2.13A14.9,14.9,0,0,1,0,0" transform="translate(121.206 233.551)" fill="#ff9073"/>
      <path id="Caminho_3415" data-name="Caminho 3415" d="M0,0A9.687,9.687,0,0,1-8.479-4.638l3.452-2.021C-3.427-3.927.439-3.17,3.592-4.97A6.908,6.908,0,0,0,6.886-9.1a5.233,5.233,0,0,0-.493-4.026l3.451-2.021a9.2,9.2,0,0,1,.907,7.079A10.933,10.933,0,0,1,5.575-1.5,11.242,11.242,0,0,1,0,0" transform="translate(88.861 222.858)" fill="#ff9073"/>
    </g>
  </g>
</svg>
