<svg xmlns="http://www.w3.org/2000/svg" width="13" height="13" viewBox="0 0 13 13">
  <g id="pv_tit4_fim" transform="translate(-967.087 -3120.249)">
    <g id="Grupo_2320" data-name="Grupo 2320" transform="translate(973.587 3120.249)">
      <path id="Caminho_3494" data-name="Caminho 3494" d="M0,0A6.5,6.5,0,0,0,0,13,6.508,6.508,0,0,0,6.5,6.5,6.508,6.508,0,0,0,0,0" fill="#0fbed2"/>
    </g>
    <g id="Grupo_2321" data-name="Grupo 2321" transform="translate(973.587 3129.698)">
      <path id="Caminho_3495" data-name="Caminho 3495" d="M0,0A2.949,2.949,0,0,0,2.949-2.949,2.949,2.949,0,0,0,0-5.9,2.949,2.949,0,0,0-2.949-2.949,2.949,2.949,0,0,0,0,0" fill="#ffcb6a"/>
    </g>
    <path id="Caminho_3496" data-name="Caminho 3496" d="M9-54.93H22v-13H9Z" transform="translate(958.087 3188.179)" fill="none"/>
  </g>
</svg>
