<svg xmlns="http://www.w3.org/2000/svg" width="156.282" height="300" viewBox="0 0 156.282 300">
  <g id="pv_livroreceitas" transform="translate(-931 -1383)">
    <rect id="Retângulo_441" data-name="Retângulo 441" width="156" height="300" transform="translate(931 1383)" fill="none"/>
    <g id="pv_livroreceitas-2" data-name="pv_livroreceitas" transform="translate(11.001 39.204)">
      <g id="pv_livroreceitas-3" data-name="pv_livroreceitas">
        <path id="Caminho_4811" data-name="Caminho 4811" d="M13.981,0A23.6,23.6,0,0,0-3.381,15.215L23.527,20.3,25.135,7.564,15.106.19S14.715.128,13.981,0" transform="translate(1051.146 1374.829)" fill="#0fbed2"/>
        <path id="Caminho_4812" data-name="Caminho 4812" d="M116.694,28.8C87.049-3.464,3.279-29.006-22.592,21.914-44.668,65.368,2.5,93.827,44.422,99.835V77.014A86.065,86.065,0,0,1,25.5,73.106C7.2,66.7-15.044,43.733,3.381,25.288,29.925-1.287,84,22.9,108.4,39.081c6.7,4.447,13.161-4.981,8.293-10.281" transform="translate(948.219 1360.761)" fill="#ff9147"/>
      </g>
      <g id="pv_livroreceitas-4" data-name="pv_livroreceitas" transform="translate(0 120)">
        <path id="Caminho_4811-2" data-name="Caminho 4811" d="M13.981,0A23.6,23.6,0,0,0-3.381,15.215L23.527,20.3,25.135,7.564,15.106.19S14.715.128,13.981,0" transform="translate(1051.146 1374.829)" fill="#0fbed2"/>
        <path id="Caminho_4812-2" data-name="Caminho 4812" d="M116.694,28.8C87.049-3.464,3.279-29.006-22.592,21.914-44.668,65.368,2.5,93.827,44.422,99.835V77.014A86.065,86.065,0,0,1,25.5,73.106C7.2,66.7-15.044,43.733,3.381,25.288,29.925-1.287,84,22.9,108.4,39.081c6.7,4.447,13.161-4.981,8.293-10.281" transform="translate(948.219 1360.761)" fill="#ff9147"/>
      </g>
    </g>
  </g>
</svg>
