<svg xmlns="http://www.w3.org/2000/svg" xmlns:xlink="http://www.w3.org/1999/xlink" width="159.609" height="83.936" viewBox="0 0 159.609 83.936">
  <defs>
    <clipPath id="clip-path">
      <path id="Caminho_4852" data-name="Caminho 4852" d="M0,17.872H159.609V-66.064H0Z" transform="translate(0 66.064)" fill="none"/>
    </clipPath>
  </defs>
  <g id="pv_prancheta_dois" transform="translate(0 66.064)">
    <g id="Grupo_3611" data-name="Grupo 3611" transform="translate(0 -66.064)" clip-path="url(#clip-path)">
      <g id="Grupo_3608" data-name="Grupo 3608" transform="translate(66.343 13.776)">
        <path id="Caminho_4849" data-name="Caminho 4849" d="M.213,4.2A12.154,12.154,0,0,1-.434-3.6a15.268,15.268,0,0,1,3.776-7.153,14.883,14.883,0,0,1,6.928-4.26,11.36,11.36,0,0,1,7.854.418l.06.027.074.2-.133.089a17.771,17.771,0,0,0-6.832,1.56A17.517,17.517,0,0,0,5.658-8.6a18.537,18.537,0,0,0-3.74,5.905A20.679,20.679,0,0,0,.529,4.2l-.156.147L.239,4.256Z" transform="translate(0.786 15.514)" fill="#b43fa0"/>
      </g>
      <g id="Grupo_3609" data-name="Grupo 3609" transform="translate(53.071 -0.001)">
        <path id="Caminho_4850" data-name="Caminho 4850" d="M5.692,0A26.734,26.734,0,1,0,32.426,26.734,26.733,26.733,0,0,0,5.692,0m0,39.052a12.319,12.319,0,1,1,12.32-12.318A12.318,12.318,0,0,1,5.692,39.052" transform="translate(21.041)" fill="#0fbed2"/>
      </g>
      <g id="Grupo_3610" data-name="Grupo 3610" transform="translate(0 32.959)">
        <path id="Caminho_4851" data-name="Caminho 4851" d="M30.924,0H-21.5c0,3.106-2.518,11.954-5.625,11.954H-45.408c-3.106,0-5.625-8.848-5.625-11.954H-99.944a14.37,14.37,0,0,0-14.371,14.37V36.606A14.371,14.371,0,0,0-99.944,50.977H30.924a14.37,14.37,0,0,0,14.37-14.371V14.37A14.368,14.368,0,0,0,30.924,0" transform="translate(114.315)" fill="#0fbed2"/>
      </g>
    </g>
  </g>
</svg>
