<svg xmlns="http://www.w3.org/2000/svg" width="34.074" height="31.286" viewBox="0 0 34.074 31.286">
  <g id="pv_sugest_comp_um" transform="translate(-1299.214 -600.942)">
    <g id="Grupo_3490" data-name="Grupo 3490" transform="translate(1309.725 621.964)">
      <path id="Caminho_3507" data-name="Caminho 3507" d="M5.132,10.264A15.643,15.643,0,0,0,20.775-5.379,15.643,15.643,0,0,0,5.132-21.022,15.643,15.643,0,0,0-10.511-5.379,15.643,15.643,0,0,0,5.132,10.264Z" fill="#35bf9f"/>
    </g>
    <g id="Grupo_2331" data-name="Grupo 2331" transform="translate(1314.857 627.096)">
      <path id="Caminho_3506" data-name="Caminho 3506" d="M0,0A10.511,10.511,0,0,0,10.511-10.511,10.511,10.511,0,0,0,0-21.022,10.511,10.511,0,0,0-10.511-10.511,10.511,10.511,0,0,0,0,0" fill="#ffcb6a"/>
    </g>
    <g id="Grupo_2332" data-name="Grupo 2332" transform="translate(1314.857 627.096)">
      <path id="Caminho_3507-2" data-name="Caminho 3507" d="M0,0A10.511,10.511,0,0,0,10.511-10.511,10.511,10.511,0,0,0,0-21.022,10.511,10.511,0,0,0-10.511-10.511,10.511,10.511,0,0,0,0,0Z" fill="none" stroke="#ffcb6a" stroke-width="3"/>
    </g>
    <g id="Grupo_2333" data-name="Grupo 2333" transform="translate(1309.326 607.956)">
      <path id="Caminho_3508" data-name="Caminho 3508" d="M0,0A2.835,2.835,0,0,0-2.213,3.343L.6,17.141a2.834,2.834,0,0,0,3.342,2.212l10.3-2.1a2.835,2.835,0,0,0,2.213-3.343L13.641.118A2.835,2.835,0,0,0,10.3-2.1Z" fill="#fff"/>
    </g>
    <g id="Grupo_2334" data-name="Grupo 2334" transform="translate(1309.326 607.956)">
      <path id="Caminho_3509" data-name="Caminho 3509" d="M0,0A2.835,2.835,0,0,0-2.213,3.343L.6,17.141a2.834,2.834,0,0,0,3.342,2.212l10.3-2.1a2.835,2.835,0,0,0,2.213-3.343L13.641.118A2.835,2.835,0,0,0,10.3-2.1Z" fill="none" stroke="#fff" stroke-width="3"/>
    </g>
    <g id="Grupo_2335" data-name="Grupo 2335" transform="translate(1309.904 608.294)">
      <path id="Caminho_3510" data-name="Caminho 3510" d="M0,0A2.835,2.835,0,0,0-2.213,3.343L.4,16.184A2.835,2.835,0,0,0,3.743,18.4L13.054,16.5a2.835,2.835,0,0,0,2.213-3.343L12.654.318A2.835,2.835,0,0,0,9.311-1.895Z" fill="none" stroke="#b43fa0" stroke-width="2"/>
    </g>
    <g id="Grupo_2336" data-name="Grupo 2336" transform="translate(1310.253 614.352)">
      <path id="Caminho_3511" data-name="Caminho 3511" d="M0,0-.4-1.96l11.11-2.261.4,1.96Z" fill="#b43fa0"/>
    </g>
    <g id="Grupo_2337" data-name="Grupo 2337" transform="translate(1311.173 618.869)">
      <path id="Caminho_3512" data-name="Caminho 3512" d="M0,0-.4-1.959,10.712-4.221l.4,1.959Z" fill="#b43fa0"/>
    </g>
    <g id="Grupo_2338" data-name="Grupo 2338" transform="translate(1312.092 623.387)">
      <path id="Caminho_3513" data-name="Caminho 3513" d="M0,0-.4-1.959,10.712-4.221l.4,1.959Z" fill="#b43fa0"/>
    </g>
    <g id="Grupo_2339" data-name="Grupo 2339" transform="translate(1330.288 613.533)">
      <path id="Caminho_3514" data-name="Caminho 3514" d="M0,0H-2.953V-2.953a3,3,0,0,0-3-3,3,3,0,0,0-3,3V0H-11.9a3,3,0,0,0-3,3,3,3,0,0,0,3,3h2.952V8.952a3,3,0,0,0,3,3,3,3,0,0,0,3-3V6H0A3,3,0,0,0,0,0" fill="#fff"/>
    </g>
    <g id="Grupo_2340" data-name="Grupo 2340" transform="translate(1330.288 614.533)">
      <path id="Caminho_3515" data-name="Caminho 3515" d="M0,0H-3.953V-3.953a2,2,0,0,0-2-2,2,2,0,0,0-2,2V0H-11.9a2,2,0,0,0-2,2,2,2,0,0,0,2,2h3.952V7.952a2,2,0,0,0,2,2,2,2,0,0,0,2-2V4H0A2,2,0,0,0,2,2,2,2,0,0,0,0,0" fill="#ff9147"/>
    </g>
  </g>
</svg>
