<svg xmlns="http://www.w3.org/2000/svg" xmlns:xlink="http://www.w3.org/1999/xlink" width="71.585" height="45.84" viewBox="0 0 71.585 45.84">
  <defs>
    <clipPath id="clip-path">
      <path id="Caminho_3497" data-name="Caminho 3497" d="M0,0A18.2,18.2,0,0,0-22.3-12.872,18.107,18.107,0,0,0-29.671-8.88l-.044-.036c-.119.134-.239.255-.359.383-.223.211-.426.439-.637.66A16.849,16.849,0,0,1-46.69-3.026a18.218,18.218,0,0,0-1.832-.548l-.063-.026-.005.013a18.111,18.111,0,0,0-8.872.138,18.2,18.2,0,0,0-12.872,22.3A18.2,18.2,0,0,0-48.039,31.718a18.1,18.1,0,0,0,9.28-5.959A16.729,16.729,0,0,1-23.548,21.91a18.129,18.129,0,0,0,2.163.591c.032.011.064.019.1.029l0-.01a18.094,18.094,0,0,0,8.413-.225A18.2,18.2,0,0,0,0,0" transform="translate(1366.959 528.337)" fill="#ff9147"/>
    </clipPath>
  </defs>
  <g id="pv_sugest_comp_dois" transform="translate(-1296 -588.839)">
    <g id="Grupo_2322" data-name="Grupo 2322" transform="translate(1366.959 602.337)">
      <path id="Caminho_3497-2" data-name="Caminho 3497" d="M0,0A18.2,18.2,0,0,0-22.3-12.872,18.107,18.107,0,0,0-29.671-8.88l-.044-.036c-.119.134-.239.255-.359.383-.223.211-.426.439-.637.66A16.849,16.849,0,0,1-46.69-3.026a18.218,18.218,0,0,0-1.832-.548l-.063-.026-.005.013a18.111,18.111,0,0,0-8.872.138,18.2,18.2,0,0,0-12.872,22.3A18.2,18.2,0,0,0-48.039,31.718a18.1,18.1,0,0,0,9.28-5.959A16.729,16.729,0,0,1-23.548,21.91a18.129,18.129,0,0,0,2.163.591c.032.011.064.019.1.029l0-.01a18.094,18.094,0,0,0,8.413-.225A18.2,18.2,0,0,0,0,0" fill="#ff9147"/>
    </g>
    <path id="Caminho_3502" data-name="Caminho 3502" d="M53.387-45.84a18.227,18.227,0,0,0-4.723.626h0a18.075,18.075,0,0,0-7.376,3.991h0l-.045-.036c-.117.133-.239.255-.359.384h0c-.222.209-.424.439-.637.658h0a16.85,16.85,0,0,1-15.978,4.849h0a17.79,17.79,0,0,0-1.832-.549h0l-.064-.026h0l0,.012a18.119,18.119,0,0,0-8.874.14h0A18.211,18.211,0,0,0,0-18.28H0v.131A18.18,18.18,0,0,0,.626-13.5h0A18.21,18.21,0,0,0,18.142,0h.124a18.163,18.163,0,0,0,4.653-.626h0A18.1,18.1,0,0,0,32.2-6.583h0a16.732,16.732,0,0,1,15.212-3.851h0a17.632,17.632,0,0,0,2.164.592h0l.094.028h0l.006-.01a18.038,18.038,0,0,0,8.412-.225h0A18.2,18.2,0,0,0,70.96-32.342h0A18.215,18.215,0,0,0,53.387-45.84Z" transform="translate(1296 634.68)" fill="none"/>
    <g id="Grupo_de_máscara_13" data-name="Grupo de máscara 13" transform="translate(0 74)" clip-path="url(#clip-path)">
      <path id="Caminho_3499" data-name="Caminho 3499" d="M0,0A17.051,17.051,0,0,1,4.331-12.4,17.047,17.047,0,0,1,16.164-18.11,17.181,17.181,0,0,1,34.274-1.946l-4.719.267A12.458,12.458,0,0,0,16.432-13.392,12.362,12.362,0,0,0,7.858-9.255,12.354,12.354,0,0,0,4.72-.268Z" transform="translate(1288.218 571.69)" fill="#ffb681"/>
      <path id="Caminho_3500" data-name="Caminho 3500" d="M0,0A17.283,17.283,0,0,1-2.647-.2,17.048,17.048,0,0,1-13.879-7.019a17.185,17.185,0,0,1,3.693-23.992l2.8,3.812A12.453,12.453,0,0,0-10.066-9.813,12.358,12.358,0,0,0-1.929-4.875,12.358,12.358,0,0,0,7.319-7.139l2.8,3.813A17.045,17.045,0,0,1,0,0" transform="translate(1366.7 541.25)" fill="#ffb681"/>
      <path id="Caminho_3501" data-name="Caminho 3501" d="M0,0A12.631,12.631,0,0,1-3.8-.584a11.741,11.741,0,0,1-7.113-6.073L-6.66-8.729A7.058,7.058,0,0,0-2.375-5.092a8.1,8.1,0,0,0,6-.486A7.621,7.621,0,0,0,7.47-15.621l4.249-2.072A12.35,12.35,0,0,1,5.7-1.329,12.987,12.987,0,0,1,0,0" transform="translate(1330.943 529.594)" fill="#ffb681"/>
    </g>
  </g>
</svg>
