<svg xmlns="http://www.w3.org/2000/svg" width="55.18" height="27.59" viewBox="0 0 55.18 27.59">
  <g id="pv_tit3_fim" transform="translate(-891 -433.59)">
    <g id="pv_tit3_fim-2" data-name="pv_tit3_fim" transform="translate(852 -11)">
      <g id="Grupo_2064" data-name="Grupo 2064" transform="translate(94.18 458.385)">
        <path id="Caminho_3252" data-name="Caminho 3252" d="M0,0A13.8,13.8,0,0,0-13.8-13.8a13.721,13.721,0,0,0-6.183,1.476L-20-12.354c-.114.074-.225.139-.338.209-.2.111-.4.238-.6.359a12.772,12.772,0,0,1-12.647.414,13.513,13.513,0,0,0-1.233-.761l-.042-.032-.006.009A13.731,13.731,0,0,0-41.385-13.8,13.8,13.8,0,0,0-55.18,0a13.8,13.8,0,0,0,13.8,13.8,13.711,13.711,0,0,0,7.961-2.542,12.676,12.676,0,0,1,11.89.167,13.9,13.9,0,0,0,1.467.856l.065.04,0-.006A13.724,13.724,0,0,0-13.8,13.8,13.8,13.8,0,0,0,0,0" fill="#0fbed2"/>
      </g>
      <g id="Grupo_2065" data-name="Grupo 2065" transform="translate(62.135 458.252)">
        <path id="Caminho_3253" data-name="Caminho 3253" d="M0,0A9.385,9.385,0,0,1-9.638,9.111,9.385,9.385,0,0,1-19.276,0,9.385,9.385,0,0,1-9.638-9.111,9.385,9.385,0,0,1,0,0" fill="#ff5639"/>
      </g>
      <g id="Grupo_2066" data-name="Grupo 2066" transform="translate(62.135 458.252)">
        <path id="Caminho_3254" data-name="Caminho 3254" d="M0,0A9.385,9.385,0,0,1-9.638,9.111,9.385,9.385,0,0,1-19.276,0,9.385,9.385,0,0,1-9.638-9.111,9.385,9.385,0,0,1,0,0Z" fill="none" stroke="#ffcb6a" stroke-width="2.806"/>
      </g>
      <path id="Caminho_3255" data-name="Caminho 3255" d="M0,0H55.18V-27.59H0Z" transform="translate(39 472.18)" fill="none"/>
    </g>
  </g>
</svg>
