<svg xmlns="http://www.w3.org/2000/svg" xmlns:xlink="http://www.w3.org/1999/xlink" width="12.999" height="12.999" viewBox="0 0 12.999 12.999">
  <defs>
    <clipPath id="clip-path">
      <path id="Caminho_3258" data-name="Caminho 3258" d="M0,0H13V-13H0Z" fill="none"/>
    </clipPath>
  </defs>
  <g id="pv_tit4_fim" transform="translate(0 12.999)">
    <g id="Grupo_2070" data-name="Grupo 2070" clip-path="url(#clip-path)">
      <g id="Grupo_2068" data-name="Grupo 2068" transform="translate(6.5 -13)">
        <path id="Caminho_3256" data-name="Caminho 3256" d="M0,0A6.5,6.5,0,0,0,0,13,6.508,6.508,0,0,0,6.5,6.5,6.508,6.508,0,0,0,0,0" fill="#0fbed2"/>
      </g>
      <g id="Grupo_2069" data-name="Grupo 2069" transform="translate(6.5 -3.551)">
        <path id="Caminho_3257" data-name="Caminho 3257" d="M0,0A2.949,2.949,0,0,0,2.949-2.949,2.949,2.949,0,0,0,0-5.9,2.949,2.949,0,0,0-2.949-2.949,2.949,2.949,0,0,0,0,0" fill="#ffcb6a"/>
      </g>
    </g>
  </g>
</svg>
